<?xml version="1.0" encoding="UTF-8"?>
<svg width="22px" height="28px" viewBox="0 0 22 28" version="1.1" xmlns="http://www.w3.org/2000/svg" xmlns:xlink="http://www.w3.org/1999/xlink">
    <title>icons/bold/explore@2x</title>
    <g id="Home" stroke="none" stroke-width="1" fill="none" fill-rule="evenodd">
        <g transform="translate(-229.000000, -999.000000)" fill="#898989" id="nav">
            <g transform="translate(0.000000, 982.000000)">
                <g id="Group" transform="translate(224.000000, 15.000000)">
                    <g id="notification" transform="translate(5.333333, 2.666667)">
                        <path d="M19.4553169,14.4399999 C19.1640986,13.9466666 18.900616,13.0133338 18.900616,12.4666672 L18.900616,9.09333293 C18.900616,5.95999972 16.9868947,3.25333333 14.2272548,1.98666668 C13.5061429,0.75999999 12.1748595,0 10.6494304,0 C9.1378688,0 7.77884998,0.786666632 7.05773808,2.02666664 C4.3535683,3.32000001 2.48145143,6 2.48145143,9.09333293 L2.48145143,12.4666672 C2.48145143,13.0133338 2.21796809,13.9466662 1.92674982,14.4266663 L0.526128925,16.653333 C-0.0285725638,17.5466664 -0.153380712,18.5333332 0.193307713,19.4399999 C0.526128594,20.3333333 1.31657844,21.0266673 2.34277619,21.3600006 C5.03307845,22.2400006 7.86205645,22.6666667 10.6910339,22.6666667 C13.5200114,22.6666667 16.3489896,22.2400009 19.0392919,21.3733342 C20.0100194,21.0666676 20.7588665,20.3599999 21.1194224,19.4399999 C21.4799784,18.5199999 21.3829045,17.5066663 20.8420706,16.653333 L19.4553169,14.4399999 Z M10.6629438,26.6666667 C9.56740835,26.6666667 8.48574067,26.2400008 7.72302611,25.4800008 C7.27926494,25.0800008 6.94644431,24.5466667 6.75229879,24 C6.93257676,24.0266667 7.11285422,24.039999 7.30699974,24.0666656 C7.6259531,24.1066656 7.95877404,24.1466655 8.29159492,24.1733322 C9.08204452,24.2399989 9.88636239,24.2799988 10.6906795,24.2799988 C11.4811291,24.2799988 12.2715785,24.2399989 13.0481605,24.1733322 C13.3393788,24.1466655 13.6305969,24.1333329 13.9079477,24.0933329 C14.1298283,24.0666663 14.3517085,24.0400003 14.5874567,24.0133336 C14.0050201,25.5600003 12.4657235,26.6666667 10.6629438,26.6666667 Z" id="Combined-Shape"></path>
                    </g>
                </g>
            </g>
        </g>
    </g>
</svg>