<?xml version="1.0" encoding="UTF-8"?>
<svg width="28px" height="28px" viewBox="0 0 28 28" version="1.1" xmlns="http://www.w3.org/2000/svg" xmlns:xlink="http://www.w3.org/1999/xlink">
    <title>icons/bold/explore@2x</title>
    <g id="Home" stroke="none" stroke-width="1" fill="none" fill-rule="evenodd">
        <g transform="translate(-125.000000, -999.000000)" fill="#898989" id="nav">
            <g transform="translate(0.000000, 982.000000)">
                <g id="Group" transform="translate(123.000000, 15.000000)">
                    <g id="explore" transform="translate(2.666667, 2.666667)">
                        <path d="M7.39812533,25.2397919 C4.81145859,23.9597919 2.7047917,21.8397923 1.41145833,19.2531255 C1.41145833,19.2131255 1.43812497,19.1597917 1.43812497,19.1197917 C3.06479168,19.5997917 4.74479167,19.9597919 6.41145833,20.2397919 C6.70479167,21.9197919 7.05145852,23.5864579 7.53145854,25.2131246 C7.49145854,25.2131246 7.43812533,25.2397919 7.39812533,25.2397919 Z M19.0520833,25.3597921 C19.55875,23.6664588 19.9854165,21.9597918 20.2654165,20.2397919 C21.9454165,19.9597919 23.5987488,19.5997917 25.2254155,19.1197917 C25.2120822,19.173125 25.2520828,19.2264591 25.2520828,19.2664591 C23.9320828,21.9197925 21.7320833,24.0664587 19.0520833,25.3597921 Z M20.2654165,6.40062523 C19.9854165,4.68062528 19.5720833,2.97395833 19.0520833,1.30729167 C21.8120832,2.62729168 24.0387494,4.85395845 25.3587494,7.61395836 C23.6787494,7.1072917 21.9854164,6.69395856 20.2654165,6.40062523 Z M6.42729187,6.41145833 C4.70729192,6.678125 3.00062497,7.1047918 1.30729167,7.61145846 C2.60062504,4.93145847 4.74729188,2.73145835 7.40062523,1.41145833 C7.44062523,1.41145833 7.49395844,1.4514583 7.53395844,1.4514583 C7.05395842,3.078125 6.70729186,4.73145835 6.42729187,6.41145833 Z M8.68229167,6.1200002 C9.015625,4.29333353 9.44229102,2.4666667 10.042291,0.706666629 C10.0689577,0.599999964 10.0556249,0.519999921 10.0689583,0.413333257 C11.1222916,0.159999927 12.2022913,0 13.3356247,0 C14.4556247,0 15.5489575,0.159999927 16.5889575,0.413333257 C16.6022908,0.519999921 16.6022917,0.599999964 16.6289584,0.706666629 C17.2289584,2.48000002 17.6556244,4.29333353 17.9889577,6.1200002 C14.8956245,5.77333355 11.7756249,5.77333355 8.68229167,6.1200002 Z M0.706666629,16.6289584 C0.599999964,16.6022917 0.519999921,16.6156244 0.413333257,16.6022911 C0.159999927,15.5489577 0,14.4689581 0,13.3356247 C0,12.2156247 0.159999927,11.1222919 0.413333257,10.0822919 C0.519999921,10.0689586 0.599999964,10.0689577 0.706666629,10.042291 C2.48000002,9.45562434 4.28000021,9.015625 6.1200002,8.68229167 C5.78666687,11.7756249 5.78666687,14.8956245 6.1200002,17.9889577 C4.28000021,17.6556244 2.4666667,17.2289584 0.706666629,16.6289584 Z M26.2535426,16.6022911 C26.1468759,16.6156244 26.0668743,16.6022917 25.9602076,16.6289584 C24.1868742,17.215625 22.3735417,17.6556244 20.546875,17.9889577 C20.8935417,14.8956245 20.8935417,11.7756249 20.546875,8.68229167 C22.3735417,9.015625 24.2002076,9.44229102 25.9602076,10.042291 C26.0668743,10.0689577 26.1468759,10.0822919 26.2535426,10.0822919 C26.5068759,11.1356253 26.6668752,12.2156247 26.6668752,13.3356247 C26.6668752,14.4689581 26.5068759,15.5489577 26.2535426,16.6022911 Z M16.6289584,25.9602076 C16.6022917,26.0668743 16.6022908,26.1468759 16.5889575,26.2535426 C15.5489575,26.5068759 14.4556247,26.6668752 13.3356247,26.6668752 C12.2022913,26.6668752 11.1222916,26.5068759 10.0689583,26.2535426 C10.0556249,26.1468759 10.0689577,26.0668743 10.042291,25.9602076 C9.45562434,24.1868742 9.015625,22.386875 8.68229167,20.546875 C10.2289583,20.7202083 11.7756248,20.8402074 13.3356247,20.8402074 C14.8956246,20.8402074 16.4556244,20.7202083 17.9889577,20.546875 C17.6556244,22.386875 17.2289584,24.2002076 16.6289584,25.9602076 Z M8.31555879,18.3511074 C7.89481375,15.0163133 7.89481375,11.6503528 8.31555879,8.31555879 C11.6503528,7.89481375 15.0163133,7.89481375 18.3511074,8.31555879 C18.7718524,11.6503528 18.7718524,15.0163133 18.3511074,18.3511074 C15.0163133,18.7718524 11.6503528,18.7718524 8.31555879,18.3511074 Z" id="Combined-Shape"></path>
                    </g>
                </g>
            </g>
        </g>
    </g>
</svg>