<?xml version="1.0" encoding="UTF-8"?>
<svg width="24px" height="28px" viewBox="0 0 24 28" version="1.1" xmlns="http://www.w3.org/2000/svg" xmlns:xlink="http://www.w3.org/1999/xlink">
    <title>icons/bold/explore@2x</title>
    <g id="Home" stroke="none" stroke-width="1" fill="none" fill-rule="evenodd">
        <g transform="translate(-329.000000, -999.000000)" fill="#898989" id="nav">
            <g transform="translate(0.000000, 982.000000)">
                <g id="Group" transform="translate(325.000000, 15.000000)">
                    <g id="user" transform="translate(4.000000, 2.666667)">
                        <path d="M11.9997935,13.0081301 C8.35434959,13.0081301 5.39913357,10.0961611 5.39913357,6.50406504 C5.39913357,2.91196901 8.35434959,0 11.9997935,0 C15.6452375,0 18.6004535,2.91196901 18.6004535,6.50406504 C18.6004535,10.0961611 15.6452375,13.0081301 11.9997935,13.0081301 Z M0,26.0162602 C0,26.3804878 0.290429036,26.6666667 0.660065996,26.6666667 L23.339934,26.6666667 C23.709571,26.6666667 24,26.3804878 24,26.0162602 C24,20.6308945 18.6138616,16.2601626 12,16.2601626 C5.38613842,16.2601626 0,20.6308945 0,26.0162602 Z" id="Combined-Shape"></path>
                    </g>
                </g>
            </g>
        </g>
    </g>
</svg>