<?xml version="1.0" encoding="UTF-8"?>
<svg width="28px" height="28px" viewBox="0 0 28 28" version="1.1" xmlns="http://www.w3.org/2000/svg" xmlns:xlink="http://www.w3.org/1999/xlink">
    <title>icons/bold/home@2x</title>
    <g id="Home" stroke="none" stroke-width="1" fill="none" fill-rule="evenodd">
        <g transform="translate(-24.000000, -999.000000)" fill="#2A2A2A" id="nav">
            <g transform="translate(0.000000, 982.000000)">
                <g id="Group" transform="translate(22.000000, 15.000000)">
                    <g id="home" transform="translate(2.666667, 2.666667)">
                        <path d="M16.3199492,1.02669017 C14.6420594,-0.333308506 12.0203561,-0.346641814 10.3555748,1.01335686 L1.76949855,8.01335081 C0.537298181,9.01334986 -0.209887266,11.0133465 0.0522830308,12.5866783 L1.70395604,22.6400032 C2.08410295,24.8933345 4.14213916,26.6666667 6.38369521,26.6666667 L20.27872,26.6666667 C22.494059,26.6666667 24.5914224,24.8533341 24.9715693,22.6266696 L26.6232425,12.5733459 C26.8591958,11.0133475 26.1120111,9.01334986 24.9060278,8.01335081 L16.3199492,1.02669017 Z M13.3312082,22.3333375 C12.7937591,22.3333375 12.3480696,21.8800046 12.3480696,21.3333384 L12.3480696,17.333341 C12.3480696,16.7866748 12.7937591,16.3333419 13.3312082,16.3333419 C13.8686573,16.3333419 14.3143468,16.7866748 14.3143468,17.333341 L14.3143468,21.3333384 C14.3143468,21.8800046 13.8686573,22.3333375 13.3312082,22.3333375 Z" id="Vector"></path>
                    </g>
                </g>
            </g>
        </g>
    </g>
</svg>