<?xml version="1.0" encoding="UTF-8"?>
<svg width="20px" height="19px" viewBox="0 0 20 19" version="1.1" xmlns="http://www.w3.org/2000/svg" xmlns:xlink="http://www.w3.org/1999/xlink">
    <title>icons/bold/likes@2x</title>
    <g id="Home" stroke="none" stroke-width="1" fill="none" fill-rule="evenodd">
        <g transform="translate(-268.000000, -628.000000)" fill="#FF7445" id="post/no-title">
            <g transform="translate(16.000000, 522.000000)">
                <g id="stats/timer" transform="translate(106.000000, 104.000000)">
                    <g id="icons/bold/likes" transform="translate(144.000000, 0.000000)">
                        <path d="M8.39135658,7.92321167 C8.39135658,7.53256823 8.51136952,7.15169101 8.7313947,6.82941017 L11.4617077,2.86437926 C11.891757,2.22958371 12.9618793,1.78034374 13.8719835,2.11239066 C14.8520957,2.43467151 15.5021701,3.50894066 15.2921461,4.46601709 L14.7720871,7.65952784 C14.7320825,7.95251042 14.8120907,8.21619448 14.9821102,8.42128227 C15.1521296,8.6068379 15.4021588,8.72403041 15.6721897,8.72403041 L19.7826608,8.72403041 C20.5727513,8.72403041 21.252828,9.03654527 21.6528738,9.58344608 C22.0329173,10.1108147 22.1029261,10.7944406 21.8528975,11.4878326 L19.3926149,18.8026307 C19.0825794,20.0136253 17.7324249,21 16.3922714,21 L12.4918254,21 C11.8217486,21 10.8816411,20.7753802 10.4515919,20.3554385 L9.1714456,19.3885962 C8.6813895,19.027251 8.39135658,18.4510521 8.39135658,17.8455547 L8.39135658,7.92321167 Z M4.18024939,6.01706577 C2.630072,6.01706577 2,6.60303083 2,8.04841155 L2,17.8730943 C2,19.318475 2.630072,19.9044401 4.18024939,19.9044401 L5.21036751,19.9044401 C6.7605449,19.9044401 7.3906169,19.318475 7.3906169,17.8730943 L7.3906169,8.04841155 C7.3906169,6.60303083 6.7605449,6.01706577 5.21036751,6.01706577 L4.18024939,6.01706577 Z" id="Combined-Shape"></path>
                    </g>
                </g>
            </g>
        </g>
    </g>
</svg>