<?xml version="1.0" encoding="UTF-8"?>
<svg width="99px" height="102px" viewBox="0 0 99 102" version="1.1" xmlns="http://www.w3.org/2000/svg" xmlns:xlink="http://www.w3.org/1999/xlink">
    <title>mic@2x</title>
    <defs>
        <circle id="path-1" cx="32" cy="32" r="32"></circle>
        <filter x="-58.6%" y="-35.2%" width="217.2%" height="217.2%" filterUnits="objectBoundingBox" id="filter-2">
            <feMorphology radius="5" operator="erode" in="SourceAlpha" result="shadowSpreadOuter1"></feMorphology>
            <feOffset dx="0" dy="15" in="shadowSpreadOuter1" result="shadowOffsetOuter1"></feOffset>
            <feGaussianBlur stdDeviation="15" in="shadowOffsetOuter1" result="shadowBlurOuter1"></feGaussianBlur>
            <feColorMatrix values="0 0 0 0 0.164705882   0 0 0 0 0.164705882   0 0 0 0 0.164705882  0 0 0 0.496831294 0" type="matrix" in="shadowBlurOuter1"></feColorMatrix>
        </filter>
    </defs>
    <g id="Home" stroke="none" stroke-width="1" fill="none" fill-rule="evenodd">
        <g transform="translate(-276.000000, -890.000000)" id="Group">
            <g transform="translate(295.000000, 894.000000)">
                <g id="mic-bg">
                    <use fill="black" fill-opacity="1" filter="url(#filter-2)" xlink:href="#path-1"></use>
                    <use fill="#2A2A2A" fill-rule="evenodd" xlink:href="#path-1"></use>
                </g>
                <g transform="translate(16.000000, 16.000000)" fill="#FFFFFF" id="icons/bold/mic">
                    <g id="microphone" transform="translate(5.333333, 2.666667)">
                        <path d="M19.4237004,10.426159 L19.4237004,12.5328914 C19.4237004,17.2530388 15.495312,21.0931588 10.6666673,21.0931588 C5.83802268,21.0931588 1.90963362,17.2530388 1.90963362,12.5328914 L1.90963362,10.4128262 C1.90963362,9.89281002 1.48678645,9.47946274 0.954817137,9.47946274 C0.422847826,9.47946274 0,9.89281002 0,10.4128262 L0,12.5195586 C0,17.946395 4.26939536,22.4132006 9.71185083,22.8932156 L9.71185083,25.7333032 C9.71185083,26.2533194 10.134698,26.6666667 10.6666673,26.6666667 C11.1986366,26.6666667 11.6214845,26.2533194 11.6214845,25.7333032 L11.6214845,22.8932156 C17.0502997,22.4265343 21.3333333,17.946395 21.3333333,12.5195586 L21.3333333,10.4128262 C21.3196931,9.90614375 20.8968472,9.49279679 20.3785181,9.49279679 C19.8465488,9.49279679 19.4237004,9.9061428 19.4237004,10.426159 Z" id="Vector"></path>
                        <path d="M4.63555005,5.89351751 L4.63555005,12.7203972 C4.63555005,15.9738323 7.33631745,18.6139147 10.6645359,18.6139147 C13.9927544,18.6139147 16.6935217,15.9738323 16.6935217,12.7203972 L16.6935217,5.89351751 C16.6935217,2.64008248 13.9927544,0 10.6645359,0 C7.33631745,0 4.63555005,2.64008248 4.63555005,5.89351751 Z M11.6875538,9.84030749 C11.6193526,9.84030749 11.551152,9.82697313 11.4829508,9.81363938 C10.9509815,9.66696814 10.3917309,9.66696814 9.85976158,9.81363938 C9.42327393,9.93364314 9.00042645,9.68030209 8.89130454,9.26695585 C8.76854238,8.8536096 9.02770672,8.42692956 9.45055414,8.32025956 C10.2553282,8.10691957 11.1010234,8.10691957 11.9057975,8.32025956 C12.3150047,8.42692956 12.5605297,8.8536096 12.4514078,9.26695585 C12.3559261,9.61363333 12.0422,9.84030749 11.6875538,9.84030749 Z M12.4241267,7.18689096 C12.328645,7.18689096 12.2468039,7.17355756 12.1513222,7.14689006 C11.1965055,6.80021258 10.1325663,6.80021258 9.17774961,7.14689006 C8.76854242,7.29356131 8.3047743,7.08022146 8.15473167,6.68020895 C8.00468904,6.28019644 8.22293337,5.82684863 8.63214057,5.69351113 C9.9416035,5.2268299 11.3874683,5.2268299 12.6969312,5.69351113 C13.1061384,5.84018238 13.3243828,6.28019644 13.1743401,6.68020895 C13.051578,7.00021893 12.7514924,7.18689096 12.4241267,7.18689096 Z" id="Vector"></path>
                    </g>
                </g>
            </g>
        </g>
    </g>
</svg>