<?xml version="1.0" encoding="UTF-8"?>
<svg width="40px" height="40px" viewBox="0 0 40 40" version="1.1" xmlns="http://www.w3.org/2000/svg" xmlns:xlink="http://www.w3.org/1999/xlink">
    <title>icons/bold/video-circle@2x</title>
    <g id="Home" stroke="none" stroke-width="1" fill="none" fill-rule="evenodd">
        <g transform="translate(-65.000000, -572.000000)" fill="#FF7445" id="post/no-title">
            <g transform="translate(16.000000, 522.000000)">
                <g id="audio/play" transform="translate(45.000000, 46.000000)">
                    <g id="pause-circle" transform="translate(4.000000, 4.000000)">
                        <path d="M0,20 C0,31.04 8.96000004,40 20,40 C31.04,40 40,31.04 40,20 C40,8.96000004 31.0600004,0 20,0 C8.96000004,0 0,8.96000004 0,20 Z M16.0799999,27.3999996 L13.4799995,27.3999996 C12.4599996,27.3999996 12.0599995,27.0199994 12.0599995,26.0599995 L12.0599995,13.9400005 C12.0599995,12.9800006 12.4599996,12.6000004 13.4799995,12.6000004 L16.0599995,12.6000004 C17.0799994,12.6000004 17.4799995,12.9800006 17.4799995,13.9400005 L17.4799995,26.0599995 L17.5,26.0599995 C17.5,27.0199994 17.0999999,27.3999996 16.0799999,27.3999996 Z M26.6399994,27.3999996 L24.0599995,27.3999996 C23.0399995,27.3999996 22.6399994,27.0199994 22.6399994,26.0599995 L22.6399994,13.9400005 C22.6399994,12.9800006 23.0399995,12.6000004 24.0599995,12.6000004 L26.6399994,12.6000004 C27.6599994,12.6000004 28.0599995,12.9800006 28.0599995,13.9400005 L28.0599995,26.0599995 C28.0599995,27.0199994 27.6599994,27.3999996 26.6399994,27.3999996 Z" id="Vector"></path>
                    </g>
                </g>
            </g>
        </g>
    </g>
</svg>