<?xml version="1.0" encoding="UTF-8"?>
<svg width="28px" height="28px" viewBox="0 0 28 28" version="1.1" xmlns="http://www.w3.org/2000/svg" xmlns:xlink="http://www.w3.org/1999/xlink">
    <title>icons/bold/play@2x</title>
    <g id="Home" stroke="none" stroke-width="1" fill="none" fill-rule="evenodd">
        <g transform="translate(-331.000000, -50.000000)" fill="#2A2A2A" id="top">
            <g id="Group" transform="translate(329.000000, 48.000000)">
                <g id="play" transform="translate(2.666667, 2.666667)">
                    <path d="M0,13.3333333 C0,20.6933333 5.97333336,26.6666667 13.3333333,26.6666667 C20.6933333,26.6666667 26.6666667,20.6933333 26.6666667,13.3333333 C26.6666667,5.97333336 20.6933333,0 13.3333333,0 C5.97333336,0 0,5.97333336 0,13.3333333 Z M15.1733335,16.626667 L13.4666672,17.6133334 C11.2666672,18.88 9.46666718,17.8399994 9.46666718,15.3066661 L9.46666718,13.3333333 L9.46666718,11.3600006 C9.46666718,8.81333399 11.2666672,7.78666663 13.4666672,9.05333328 L15.1733335,10.0399996 L16.8799998,11.0266673 C19.0799998,12.2933339 19.0799998,14.3733327 16.8799998,15.6399994 L15.1733335,16.626667 Z" id="Vector"></path>
                </g>
            </g>
        </g>
    </g>
</svg>