<?xml version="1.0" encoding="UTF-8"?>
<svg width="16px" height="20px" viewBox="0 0 16 20" version="1.1" xmlns="http://www.w3.org/2000/svg" xmlns:xlink="http://www.w3.org/1999/xlink">
    <title>icons/bold/save@2x</title>
    <g id="Home" stroke="none" stroke-width="1" fill="none" fill-rule="evenodd">
        <g transform="translate(-342.000000, -469.000000)" fill="#2A2A2A" id="post/with-title-two">
            <g transform="translate(16.000000, 309.000000)">
                <g id="stats/timer" transform="translate(106.000000, 158.000000)">
                    <g id="save" transform="translate(216.000000, 0.000000)">
                        <g id="archive" transform="translate(4.000000, 2.000000)">
                            <path d="M3.55555529,0 C1.59355182,0 0,1.73943887 0,3.85875477 L0,17.9442095 C0,19.7436287 1.18825563,20.5033822 2.64363844,19.6336629 L7.13874462,16.9245381 C7.61773134,16.6346317 8.39147906,16.6346317 8.8612545,16.9245381 L13.3563609,19.6336629 C14.8117437,20.513379 16,19.7536255 16,17.9442095 L16,3.85875477 C15.9907887,1.73943887 14.397236,0 12.4352326,0 L3.55555529,0 Z M7.99539425,8.27732834 C7.05584337,8.27732834 6.11629226,8.09738668 5.22279775,7.7474996 C4.86355771,7.60754477 4.6793322,7.17768345 4.80829017,6.78780929 C4.94645943,6.39793513 5.34254486,6.19799983 5.7017849,6.33795467 C7.18480154,6.91776752 8.81519846,6.91776752 10.2982151,6.33795467 C10.6574551,6.19799983 11.0535404,6.39793513 11.1824983,6.78780929 C11.3114563,7.17768345 11.1272308,7.60754477 10.7679908,7.7474996 C9.87449625,8.09738668 8.93494514,8.27732834 7.99539425,8.27732834 Z" id="Vector"></path>
                        </g>
                    </g>
                </g>
            </g>
        </g>
    </g>
</svg>