<?xml version="1.0" encoding="UTF-8"?>
<svg width="20px" height="20px" viewBox="0 0 20 20" version="1.1" xmlns="http://www.w3.org/2000/svg" xmlns:xlink="http://www.w3.org/1999/xlink">
    <title>icons/bold/timer@2x</title>
    <g id="Home" stroke="none" stroke-width="1" fill="none" fill-rule="evenodd">
        <g transform="translate(-124.000000, -469.000000)" fill="#2A2A2A" id="post/with-title-two">
            <g transform="translate(16.000000, 309.000000)">
                <g id="stats/timer" transform="translate(106.000000, 158.000000)">
                    <g id="clock" transform="translate(2.000000, 2.000000)">
                        <path d="M0,10 C0,15.5100002 4.48999977,20 10,20 C15.5100002,20 20,15.5100002 20,10 C20,4.48999977 15.5100002,0 10,0 C4.48999977,0 0,4.48999977 0,10 Z M13.6999998,13.9399996 C13.5699998,13.9399996 13.4399997,13.9099999 13.3199997,13.8299999 L10.2200003,11.9799995 C9.45000029,11.5199995 8.88000011,10.5099999 8.88000011,9.61999989 L8.88000011,5.51999998 C8.88000011,5.10999998 9.22000012,4.76999998 9.63000011,4.76999998 C10.0400001,4.76999998 10.3800001,5.10999998 10.3800001,5.51999998 L10.3800001,9.61999989 C10.3800001,9.9799999 10.6799998,10.5099996 10.9899998,10.6899996 L14.0900002,12.54 C14.4500002,12.75 14.5700004,13.2099997 14.3500004,13.5699997 C14.2100004,13.8099997 13.9599998,13.9399996 13.6999998,13.9399996 Z" id="Vector"></path>
                    </g>
                </g>
            </g>
        </g>
    </g>
</svg>