<?xml version="1.0" encoding="UTF-8"?>
<svg width="40px" height="40px" viewBox="0 0 40 40" version="1.1" xmlns="http://www.w3.org/2000/svg" xmlns:xlink="http://www.w3.org/1999/xlink">
    <title>icons/bold/video-circle@2x</title>
    <g id="Home" stroke="none" stroke-width="1" fill="none" fill-rule="evenodd">
        <g transform="translate(-65.000000, -200.000000)" fill="#2A2A2A" id="post/with-title-one">
            <g transform="translate(16.000000, 120.000000)">
                <g id="audio/play" transform="translate(45.000000, 76.000000)">
                    <g id="play" transform="translate(4.000000, 4.000000)">
                        <path d="M0,20 C0,31.04 8.96000004,40 20,40 C31.04,40 40,31.04 40,20 C40,8.96000004 31.04,0 20,0 C8.96000004,0 0,8.96000004 0,20 Z M22.7600002,24.9400005 L20.2000008,26.4200001 C16.9000008,28.3200001 14.2000008,26.759999 14.2000008,22.9599991 L14.2000008,20 L14.2000008,17.0400009 C14.2000008,13.220001 16.9000008,11.6799999 20.2000008,13.5799999 L22.7600002,15.0599995 L25.3199997,16.5400009 C28.6199996,18.4400009 28.6199996,21.5599991 25.3199997,23.4599991 L22.7600002,24.9400005 Z" id="Vector"></path>
                    </g>
                </g>
            </g>
        </g>
    </g>
</svg>